@startuml
' left to right direction
class 利用者{
- 名前
- 住所
- 電話番号
}
class ホテル{
- 部屋
}
class 部屋{
- タイプ
- 価格
- キャンペーン価格
}
class 予約{
- チェックイン日
- 滞在期間
- 値段
}
利用者 "1"--"*" 予約
ホテル "1"--"*" 利用者
ホテル "1" *--"*" 部屋
部屋 "1" --"*" 予約
@enduml
' ● ホテルには部屋が複数個（いくつかは不明）あります。
' ● ホテルには利用者が会員として登録されています。
' ● 利用者は部屋を予約します。